<?xml version="1.0" encoding="UTF-8" ?>
<!DOCTYPE svg PUBLIC "-//W3C//DTD SVG 1.1//EN" "http://www.w3.org/Graphics/SVG/1.1/DTD/svg11.dtd">
<svg width="1024px" height="1024px" viewBox="0 0 1024 1024" version="1.1" xmlns="http://www.w3.org/2000/svg">
<g id="#1ae3dcff">
<path fill="#1ae3dc" opacity="1.00" d=" M 481.55 14.89 C 545.06 10.77 609.16 19.83 669.58 39.60 C 685.38 44.53 700.60 51.19 716.56 55.63 C 737.49 61.60 759.26 64.08 780.95 64.90 C 800.00 64.97 818.93 62.53 837.94 61.60 C 858.87 60.54 880.02 58.55 900.87 61.65 C 910.10 63.18 919.97 66.25 925.88 74.00 C 931.28 81.50 933.40 90.85 933.75 99.97 C 934.88 123.29 934.72 146.66 935.27 170.01 C 935.77 190.33 935.87 210.81 939.67 230.85 C 942.24 244.28 945.09 257.76 950.36 270.44 C 955.69 283.55 962.39 296.03 968.04 309.00 C 982.61 341.64 994.01 375.74 1001.18 410.77 C 1011.72 462.63 1014.56 516.16 1008.26 568.75 C 1003.89 606.20 995.45 643.20 982.82 678.73 C 958.85 745.80 920.41 807.68 870.55 858.57 C 848.14 881.36 823.99 902.60 797.46 920.49 C 782.86 930.39 768.15 940.19 752.57 948.50 C 725.09 962.91 696.83 976.11 667.16 985.38 C 626.29 998.60 583.77 1006.70 540.89 1009.20 C 477.43 1013.06 413.35 1004.20 353.08 984.06 C 299.94 966.49 249.83 939.82 205.72 905.34 C 151.59 863.25 105.84 810.24 73.12 749.93 C 38.08 685.84 17.40 613.96 13.23 541.03 C 9.39 475.03 18.85 408.28 40.97 345.98 C 53.17 311.58 69.24 278.57 88.66 247.67 C 103.84 223.47 121.02 200.49 140.38 179.46 C 162.94 154.93 187.26 131.86 214.26 112.24 C 244.10 90.54 276.02 71.60 309.77 56.65 C 363.98 32.78 422.47 18.76 481.55 14.89 M 502.28 159.26 C 433.40 160.85 365.27 183.36 308.86 222.90 C 255.72 259.87 212.84 311.57 186.92 370.93 C 173.97 400.24 165.45 431.39 160.85 463.07 C 157.27 484.86 157.84 507.04 158.13 529.03 C 158.22 547.05 161.07 564.90 164.62 582.52 C 168.95 603.47 175.06 624.06 183.03 643.91 C 205.31 699.67 242.73 749.03 289.36 786.71 C 339.84 827.46 401.78 853.62 466.06 862.09 C 488.20 865.22 510.64 865.33 532.94 864.43 C 599.61 860.23 665.23 837.52 719.43 798.32 C 766.81 764.04 805.89 718.12 831.41 665.44 C 847.33 632.57 857.79 597.16 863.14 561.06 C 866.43 540.87 866.09 520.34 865.93 499.96 C 865.87 485.95 864.82 471.95 862.38 458.15 C 856.37 420.80 844.81 384.27 827.41 350.65 C 799.19 296.21 756.50 249.36 705.05 216.02 C 645.26 177.17 573.53 157.22 502.28 159.26 Z" />
</g>
<g id="#5743ffff">
<path fill="#5743ff" opacity="1.00" d=" M 502.28 159.26 C 573.53 157.22 645.26 177.17 705.05 216.02 C 756.50 249.36 799.19 296.21 827.41 350.65 C 844.81 384.27 856.37 420.80 862.38 458.15 C 864.82 471.95 865.87 485.95 865.93 499.96 C 866.09 520.34 866.43 540.87 863.14 561.06 C 857.79 597.16 847.33 632.57 831.41 665.44 C 805.89 718.12 766.81 764.04 719.43 798.32 C 665.23 837.52 599.61 860.23 532.94 864.43 C 510.64 865.33 488.20 865.22 466.06 862.09 C 401.78 853.62 339.84 827.46 289.36 786.71 C 242.73 749.03 205.31 699.67 183.03 643.91 C 175.06 624.06 168.95 603.47 164.62 582.52 C 161.07 564.90 158.22 547.05 158.13 529.03 C 157.84 507.04 157.27 484.86 160.85 463.07 C 165.45 431.39 173.97 400.24 186.92 370.93 C 212.84 311.57 255.72 259.87 308.86 222.90 C 365.27 183.36 433.40 160.85 502.28 159.26 Z" />
</g>
</svg>
